<svg viewBox="0 0 358.46 344.1" xmlns="http://www.w3.org/2000/svg" xmlns:xlink="http://www.w3.org/1999/xlink" id="Content" overflow="hidden"><defs></defs><path d="M311.07 225.57C298.96 225.55 289.16 215.74 289.18 203.67L289.24 159.15 175.4 159.15 175.13 324.58 233.86 324.02 234 238.98C239.41 261.64 259.82 278.52 284.22 278.56L289.05 278.56C289.05 278.56 338.21 278.74 338.21 278.74L338.21 225.62 311.07 225.57Z" fill="#1A1A18"/><path d="M337.86 287.34 337.69 225.62 358.46 225.62 358.44 306.23C347.62 306.25 338.74 297.94 337.86 287.35" fill="#85BC22"/><path d="M172.2 323.52 233.85 323.35 233.89 344.1 153.32 344.1C153.3 333.28 161.61 324.4 172.2 323.52" fill="#85BC22"/><path d="M316.88 63.59 316.88 78.2C316.88 86.54 310.14 93.3 301.82 93.35L145.33 93.35 145.33 189.4C145.33 214.65 166.89 225.82 184.94 225.82L216.24 225.82 218.21 187.29 203.8 187.29C196.69 187.29 190.74 182.09 189.11 175.49L304.03 175.49 304.03 136.66 319.3 136.66C344.55 136.66 355.72 115.1 355.72 97.05L355.72 63.59 316.9 63.59Z" fill="#004B36"/><path d="M104.15 250.08C104.15 231.21 92.62 219.68 73.75 219.68 92.62 219.68 104.15 208.15 104.15 189.27 104.15 208.14 115.68 219.68 134.55 219.68 115.68 219.68 104.15 231.21 104.15 250.08" fill="#EFD500"/><path d="M241.25 187.3 209.87 187.3C204.37 188.53 200.11 191.38 200.09 193.94 200.08 196.5 208.89 196.87 211.45 196.88L231.93 196.99C237.05 197.02 241.22 192.89 241.25 187.77" fill="#85BC22"/><path d="M166.47 305.12C165.89 305.12 165.31 304.97 164.79 304.65 163.24 303.72 162.74 301.71 163.67 300.16L343.34 1.59C344.27 0.04 346.28-0.46 347.83 0.47 349.38 1.4 349.88 3.41 348.95 4.96L169.28 303.54C168.67 304.56 167.58 305.13 166.47 305.13Z" fill="#9278B5"/><path d="M235.57 236.69 235.57 236.69C237.46 234.5 236.9 231.91 235.06 230.18L225 220.76C224.63 220.42 224.57 219.86 224.86 219.44 225.18 218.98 225.81 218.86 226.27 219.18L240.93 229.26C242.82 230.56 245.47 230.34 246.94 228.58 248.63 226.56 248.19 223.57 246.07 222.12L231.28 211.95C230.8 211.62 230.68 210.97 231.01 210.49 231.3 210.06 231.87 209.91 232.34 210.15L244.76 216.29C246.92 217.36 249.63 216.63 250.76 214.5 251.93 212.3 251.05 209.58 248.83 208.48L227.78 196.53 218.14 189.9C211.43 185.28 202.24 186.98 197.62 193.7L197.22 194.29C192.87 200.62 194.13 209.14 199.91 213.96L199.91 213.96C199.91 213.96 229.36 236.9 229.36 236.9 231.13 238.56 233.92 238.47 235.58 236.7" fill="#85BC22"/><path d="M334.42 20.26C328.34 16.34 320.24 18.1 316.32 24.18L309.55 34.69C305.63 40.77 307.39 48.87 313.47 52.79L324.34 59.8 324.34 63.58 348.54 63.58 348.54 29.36 334.42 20.26Z" fill="#85BC22"/><path d="M226.86 15.04C229.61 21.77 226.39 29.46 219.66 32.22 212.93 34.97 205.24 31.75 202.48 25.02 199.73 18.29 202.95 10.6 209.68 7.84 216.41 5.09 224.1 8.31 226.86 15.04" fill="#FFFFFF"/><path d="M201.42 21.96C204.17 28.69 200.95 36.38 194.22 39.14 187.49 41.89 179.8 38.67 177.04 31.94 174.29 25.21 177.51 17.52 184.24 14.76 190.97 12.01 198.66 15.23 201.42 21.96" fill="#FFFFFF"/><path d="M220.39 19.57C221.7 22.78 220.17 26.44 216.96 27.75 213.75 29.06 210.09 27.53 208.78 24.32 207.47 21.11 209 17.45 212.21 16.14 215.42 14.83 219.08 16.36 220.39 19.57" fill="#004B36"/><path d="M195.01 27.1C196.32 30.31 194.79 33.97 191.58 35.28 188.37 36.59 184.71 35.06 183.4 31.85 182.09 28.64 183.62 24.98 186.83 23.67 190.04 22.36 193.7 23.89 195.01 27.1" fill="#004B36"/><path d="M272.05 9.86 230.4 20.89C230.53 18.59 230.14 16.27 229.24 14.07 227.65 10.18 224.64 7.14 220.76 5.51 216.86 3.88 212.6 3.87 208.71 5.46 204.82 7.05 201.78 10.06 200.15 13.94 199.98 14.35 199.82 14.77 199.69 15.19 195.34 11.33 189 10.03 183.26 12.37 175.22 15.66 171.36 24.87 174.65 32.91 175.07 33.93 175.59 34.87 176.18 35.75L165.57 46.67 181.7 86.99 271.29 102.7 270.7 84.16 262.81 80.95 262.81 73.67C262.81 72.3 260.99 71.55 260.03 72.53L254.93 77.74 250.09 75.77 250.09 68.47C250.09 67.1 248.27 66.35 247.31 67.33L242.19 72.56 237.37 70.6 237.37 63.27C237.37 61.9 235.55 61.15 234.59 62.13L229.45 67.37 203.02 56.62 238.03 52.16 241.66 58.59C242.34 59.79 244.3 59.53 244.65 58.21L246.55 51.07 251.67 50.42 255.3 56.85C255.98 58.05 257.94 57.8 258.29 56.47L260.19 49.34 265.31 48.69 268.94 55.11C269.62 56.31 271.58 56.06 271.93 54.73L273.83 47.6 280.67 46.73 272.07 9.88ZM193.23 36.75C187.83 38.97 181.63 36.36 179.42 30.95 177.21 25.54 179.8 19.34 185.22 17.13 186.41 16.65 187.65 16.38 188.9 16.34 190.4 16.29 191.91 16.57 193.33 17.17 195.94 18.27 197.97 20.31 199.04 22.93 201.26 28.34 198.66 34.54 193.24 36.75M225.03 22.31 206.83 27.13C206.02 26.23 205.35 25.19 204.87 24.03 203.79 21.41 203.81 18.53 204.91 15.92 206 13.31 208.05 11.28 210.67 10.21 211.86 9.72 213.1 9.46 214.35 9.42 215.84 9.37 217.35 9.64 218.77 10.24 221.38 11.33 223.41 13.38 224.48 16.01 225.31 18.03 225.49 20.22 225.02 22.31" fill="#85BC22"/><rect x="167.79" y="228" width="13.43" height="110.68" fill="#9278B5" transform="matrix(0.489991 -0.871727 0.871727 0.489991 -157.99 296.66)"/><path d="M103.45 283.14 211.63 343.93 219.46 316.31 122.97 262.08 103.45 283.14Z" fill="#D0CEDD"/><path d="M157.73 324.12C118.11 314.64 80.51 295.29 50.98 269.17 46.69 265.38 42.37 261.36 38.99 256.93 31.56 247.17 40.13 242.89 49.61 244.39 73.62 248.19 107.99 269.27 129.67 290.24 132.48 292.96 135.24 295.85 136.61 299.2 137.98 302.55 137.67 306.47 134.85 308.63 131.41 311.27 125.79 310.47 120.92 309.47 79.7 301.06 39.07 288.56 0.16 272.32" stroke="#1A1A18" stroke-width="0.94" stroke-miterlimit="10" fill="none"/></svg>