<svg viewBox="0 0 1073.27 364.19" xmlns="http://www.w3.org/2000/svg" xmlns:xlink="http://www.w3.org/1999/xlink" id="Ebene_1" overflow="hidden"><defs></defs><path d="M0.6 354.72C26.14 352.73 51.39 347.87 75.52 339.18 95.36 332.03 114.13 322.38 132.22 311.6 166.73 291.05 199.53 267.63 238.71 256.63 263.04 249.79 288.4 247.64 313.6 248.61 325.65 249.07 337.96 249.75 349.78 252.32 358.97 254.32 367.97 257.15 376.86 260.19 422.49 275.78 466.53 296.69 509.6 318.23 529.29 328.07 548.37 339.46 568.61 348.14 597.77 360.65 630.46 368.42 662.09 361.75 687.48 356.39 709.65 340.05 722.42 317.42 734.51 295.99 736.3 269.83 722.23 248.86 707.69 227.19 681.68 216.81 657.15 211.35 635.31 206.49 606.43 201.61 586.56 215.09 577.83 221.02 572.81 231.12 574.19 241.72 575.94 255.21 586.56 266.37 597.72 273.21 625.37 290.17 660.49 295.46 692.23 290.69 712.19 287.69 729.2 280.81 746.49 270.81 765.43 259.86 783.52 247.42 801.17 234.52 838.35 207.36 875.54 177.87 906.05 143.2 911.23 137.31 916.2 131.19 920.49 124.61 920.93 123.93 919.85 123.31 919.41 123.98 909.62 139.01 896.68 152.04 883.82 164.43 867.17 180.46 849.53 195.47 831.45 209.87 813.37 224.27 794.33 238.4 774.91 251.45 759.92 261.53 744.53 271.44 728.15 279.14 703.94 290.53 674.95 293.55 648.66 289.6 632.03 287.1 615.49 281.69 600.77 273.55 587.9 266.43 574.41 252.85 575.24 236.99 576.76 208.08 614.37 206.18 635.76 208.9 661.83 212.22 690.26 219.11 710.33 237.12 730.76 255.45 736.08 283.01 725.62 308.1 715.46 332.47 693.45 352.11 667.95 359.07 635.93 367.81 602.14 360.71 572.1 348.27 551.87 339.89 532.92 328.56 513.37 318.73 472.54 298.2 430.88 278.59 387.95 262.81 371.38 256.72 354.45 250.93 336.81 249.07 311.22 246.36 285.22 246.22 259.8 250.61 220.62 257.37 186.88 276.19 153.62 296.99 137.36 307.16 121.05 317.29 103.83 325.78 83.63 335.73 62.34 343.24 40.3 347.91 27.22 350.68 13.95 352.46 0.63 353.5-0.17 353.56-0.17 354.81 0.63 354.75L0.63 354.75Z" fill="#020204"/><path d="M983.17 115.7 1044.15 68.56C1044.67 68.16 1045.15 67.72 1045.61 67.27 1059.37 55.07 1073.26 0 1073.26 0 1073.26 0 1016.73 5.45 1002.6 17.23 1002.08 17.61 1001.58 18.03 1001.1 18.48L945.33 71.68 983.17 115.7Z" fill="#C8D7B7"/><path d="M929.45 91.52C939.64 82.76 955.01 83.92 963.77 94.11 972.53 104.3 971.37 119.67 961.18 128.43 950.99 137.19 897.11 151.41 897.11 151.41 897.11 151.41 919.27 100.28 929.46 91.52Z" fill="#F29DB7"/><path d="M938.56 92.2C946.05 85.76 957.34 86.62 963.77 94.11 970.21 101.6 969.35 112.89 961.86 119.32 954.37 125.76 924.75 127.64 924.75 127.64 924.75 127.64 931.06 98.64 938.55 92.2Z" fill="#C8315C"/><path d="M937.69 72.4 900.06 73.88 921.76 55.23C931.65 46.73 946.56 47.86 955.06 57.75L968.85 73.79 937.69 72.4Z" fill="#C8D7B7"/><path d="M981.31 123.16 974.19 160.14 995.89 141.49C1005.78 132.99 1006.91 118.08 998.41 108.19L984.62 92.15 981.31 123.16Z" fill="#C8D7B7"/><path d="M928.62 124.29 928.62 124.29 968.17 82.9 975.51 91.44 928.62 124.29Z" fill="#C8D7B7"/><path d="M1057.21 48.39C1066.23 27.91 1073.27 0 1073.27 0 1073.27 0 1044.62 2.76 1023.02 8.6L1057.21 48.38Z" fill="#004B36"/><circle cx="1018.07" cy="48.07" r="22.78" fill="#FFFFFF"/><path d="M1041.12 51.38C1039.18 64.01 1027.37 72.68 1014.74 70.75 1002.11 68.81 993.44 57 995.37 44.37" fill="#004B36"/><path d="M1019.1 30.14C1019.68 32.01 1018.63 33.99 1016.76 34.57 1014.89 35.15 1012.91 34.1 1012.33 32.23 1011.75 30.36 1012.8 28.38 1014.67 27.8 1016.54 27.22 1018.52 28.27 1019.1 30.14" fill="#FFFFFF"/><path d="M1012.11 31.39C1012.69 33.26 1011.64 35.24 1009.77 35.82 1007.9 36.4 1005.92 35.35 1005.34 33.48 1004.76 31.61 1005.81 29.63 1007.68 29.05 1009.55 28.47 1011.53 29.52 1012.11 31.39" fill="#FFFFFF"/><path d="M1017.37 30.64C1017.65 31.53 1017.15 32.48 1016.26 32.75 1015.37 33.03 1014.42 32.53 1014.15 31.64 1013.87 30.75 1014.37 29.8 1015.26 29.53 1016.15 29.26 1017.1 29.75 1017.37 30.64" fill="#004B36"/><path d="M1010.37 31.91C1010.65 32.8 1010.15 33.75 1009.26 34.02 1008.37 34.3 1007.42 33.8 1007.15 32.91 1006.87 32.02 1007.37 31.07 1008.26 30.8 1009.15 30.53 1010.1 31.02 1010.37 31.91" fill="#004B36"/><path d="M1018.43 32.04 1013.44 32.9C1013.24 32.64 1013.09 32.34 1012.99 32.02 1012.76 31.29 1012.84 30.52 1013.19 29.85 1013.55 29.18 1014.14 28.68 1014.87 28.46 1015.2 28.36 1015.54 28.32 1015.88 28.34 1016.28 28.36 1016.68 28.47 1017.05 28.67 1017.72 29.03 1018.22 29.62 1018.44 30.35 1018.61 30.91 1018.61 31.5 1018.44 32.05M1009.58 35.16C1008.08 35.63 1006.48 34.78 1006.01 33.28 1005.54 31.78 1006.39 30.18 1007.89 29.71 1008.22 29.61 1008.56 29.57 1008.89 29.59 1009.29 29.61 1009.69 29.72 1010.06 29.92 1010.73 30.28 1011.23 30.87 1011.45 31.6 1011.92 33.1 1011.07 34.7 1009.57 35.17M1031.34 29.84 1019.91 31.81C1020 31.2 1019.95 30.56 1019.76 29.95 1019.43 28.87 1018.69 27.98 1017.69 27.45 1016.68 26.92 1015.54 26.82 1014.46 27.15 1013.38 27.48 1012.49 28.22 1011.97 29.22 1011.91 29.33 1011.86 29.44 1011.82 29.54 1010.75 28.4 1009.08 27.9 1007.48 28.39 1005.25 29.08 1003.99 31.46 1004.68 33.69 1004.77 33.97 1004.88 34.24 1005.02 34.49L1001.92 37.16 1005.29 48.35 1028.93 54.69 1029.21 49.71 1027.17 48.66 1027.34 46.71C1027.37 46.34 1026.9 46.1 1026.62 46.34L1025.13 47.62 1023.88 46.98 1024.06 45.02C1024.09 44.65 1023.62 44.41 1023.34 44.65L1021.84 45.93 1020.59 45.29 1020.77 43.33C1020.8 42.96 1020.33 42.72 1020.05 42.96L1018.55 44.24 1011.72 40.73 1021.21 40.37 1022.03 42.18C1022.18 42.52 1022.71 42.5 1022.84 42.15L1023.52 40.28 1024.91 40.23 1025.73 42.04C1025.88 42.38 1026.41 42.36 1026.54 42.01L1027.22 40.14 1028.61 40.09 1029.43 41.9C1029.58 42.24 1030.11 42.22 1030.24 41.87L1030.92 40 1032.77 39.93 1031.34 29.85Z" fill="#85BC22"/><path d="M1034.43 41.89 1031.43 55.13C1031.43 57.46 1032.27 58.76 1033.26 59.01 1034.24 59.26 1035.15 55.75 1035.37 54.72L1037.18 46.5C1037.63 44.45 1036.4 42.38 1034.44 41.89Z" fill="#85BC22"/><path d="M1052.77 48.75 1052.77 48.75C1052.09 47.79 1051.04 47.77 1050.22 48.35L1045.73 51.51C1045.57 51.63 1045.35 51.6 1045.21 51.44L1045.21 51.44C1045.06 51.27 1045.07 51 1045.23 50.85L1050.37 45.9C1051.03 45.26 1051.18 44.18 1050.63 43.42 1050 42.55 1048.81 42.45 1048.07 43.17L1042.88 48.16C1042.71 48.32 1042.45 48.31 1042.3 48.13L1042.3 48.13C1042.16 47.97 1042.15 47.73 1042.28 47.57L1045.71 43.16C1046.31 42.39 1046.26 41.24 1045.54 40.58 1044.82 39.92 1043.67 40 1043.06 40.79L1036.65 48.13 1036.65 48.13 1033.27 51.38C1030.91 53.65 1030.78 57.49 1032.96 59.98L1033.15 60.2C1035.21 62.54 1038.6 62.83 1040.95 60.96L1040.95 60.96C1040.95 60.96 1052.31 51.28 1052.31 51.28 1053.1 50.72 1053.31 49.6 1052.77 48.76Z" fill="#85BC22"/></svg>